PERFORMER "Sean Tyas"
TITLE "Essential Mix (2009-02-14) [TMB]"
FILE "Essential Mix - 2009-02-14 - Sean Tyas.mp3" MP3
  TRACK 01 AUDIO
    PERFORMER "Essential Mix"
    TITLE "Intro"
    INDEX 01 00:00:00
  TRACK 02 AUDIO
    PERFORMER "Sean Tyas & Simon Patterson"
    TITLE "For The Most Part (Essential Intro Solo)"
    INDEX 01 01:51:25
  TRACK 03 AUDIO
    PERFORMER "Sam Sharp"
    TITLE "Roundabout (Sander van Doorn Main Mix)"
    INDEX 01 04:14:01
  TRACK 04 AUDIO
    PERFORMER "Sean Tyas"
    TITLE "Seven Weeks"
    INDEX 01 09:05:56
  TRACK 05 AUDIO
    PERFORMER "Ron van den Beuken feat. Nicole Tyler"
    TITLE "Far Away (Extended Mix)"
    INDEX 01 15:29:66
  TRACK 06 AUDIO
    PERFORMER "Radiohead"
    TITLE "Reckoner (Above & Beyond Remix)"
    INDEX 01 20:35:19
  TRACK 07 AUDIO
    PERFORMER "Boom Jinx & Oliver Smith"
    TITLE "Sunrise (Volume Six Edit)"
    INDEX 01 28:01:68
  TRACK 08 AUDIO
    PERFORMER "Ronski Speed"
    TITLE "Aural Slave (Thomas Datt Remix)"
    INDEX 01 33:55:54
  TRACK 09 AUDIO
    PERFORMER "Sebastian Brandt"
    TITLE "Serenade"
    INDEX 01 40:31:17
  TRACK 10 AUDIO
    PERFORMER "DJ Eco"
    TITLE "ID"
    INDEX 01 46:23:57
  TRACK 11 AUDIO
    PERFORMER "Jan Johnston"
    TITLE "Flesh (Thr3shhold Remix)"
    INDEX 01 52:01:48
  TRACK 12 AUDIO
    PERFORMER "Signum"
    TITLE "Second Wave (Sean Tyas Third Wave Mix)"
    INDEX 01 58:14:06
  TRACK 13 AUDIO
    PERFORMER "Tom Colontonio"
    TITLE "Oh Lovely Pornstar"
    INDEX 01 63:54:25
  TRACK 14 AUDIO
    PERFORMER "Activa vs. Chris & Matt Kidd"
    TITLE "U.R. (Stoneface & Terminal Remix)"
    INDEX 01 68:38:02
  TRACK 15 AUDIO
    PERFORMER "John O'Callaghan feat. Jaren"
    TITLE "Surreal"
    INDEX 01 73:17:63
  TRACK 16 AUDIO
    PERFORMER "Sean Tyas"
    TITLE "Rulebook"
    INDEX 01 79:21:03
  TRACK 17 AUDIO
    PERFORMER "John Askew"
    TITLE "Vandalism"
    INDEX 01 85:37:41
  TRACK 18 AUDIO
    PERFORMER "Push"
    TITLE "Interference (Sean Tyas Remix)"
    INDEX 01 90:02:05
  TRACK 19 AUDIO
    PERFORMER "Aled Mann"
    TITLE "To The End (Last Man Standing Remix)"
    INDEX 01 97:02:24
  TRACK 20 AUDIO
    PERFORMER "AC/DC"
    TITLE "Thunderstruck (Sean Tyas Bootleg Remix)"
    INDEX 01 101:41:13
  TRACK 21 AUDIO
    PERFORMER "Sean Tyas"
    TITLE "Melbourne"
    INDEX 01 106:59:11
  TRACK 22 AUDIO
    PERFORMER "Sean Tyas"
    TITLE "I Remember Now"
    INDEX 01 114:34:00